<?xml version="1.0" encoding="utf-8"?>
<!-- Generator: Adobe Illustrator 27.6.1, SVG Export Plug-In . SVG Version: 6.00 Build 0)  -->
<svg version="1.1" id="Layer_1" xmlns="http://www.w3.org/2000/svg" xmlns:xlink="http://www.w3.org/1999/xlink" x="0px" y="0px"
	 viewBox="0 0 556.547 149.076" style="enable-background:new 0 0 556.547 149.076;" xml:space="preserve">
<style type="text/css">
	.st0{fill:none;stroke:#001856;stroke-width:5;stroke-miterlimit:8;}
	.st1{fill:#0C44C1;}
	.st2{clip-path:url(#SVGID_00000080197998778343084240000015302507292333910961_);}
	.st3{fill:#004DD6;}
	.st4{fill:#E60000;}
	.st5{fill:#FFD800;}
	.st6{fill:#FF7800;}
	.st7{fill:#87D3F8;}
	.st8{fill:#8F00FF;}
	.st9{fill:none;stroke:#000000;stroke-width:14;stroke-linecap:round;stroke-miterlimit:8;}
	.st10{fill:none;stroke:#FFFFFF;stroke-width:7.7668;stroke-linecap:round;stroke-miterlimit:8;}
	.st11{fill:none;stroke:#FFFFFF;stroke-width:8.2427;stroke-linecap:round;stroke-miterlimit:8;}
	.st12{fill:#FFFFFF;stroke:#000000;stroke-width:3;stroke-miterlimit:10;}
	.st13{fill:none;stroke:#000000;stroke-width:5;stroke-miterlimit:8;}
</style>
<g id="a">
	<g>
		<path d="M58.154,91.455C51.32,63.663,61.46,33.344,86.07,15.789C118.341-7.23,163.259,0.411,186.406,32.861
			c23.143,32.444,15.749,77.409-16.522,100.428s-77.193,15.372-100.335-17.072C64.052,108.512,60.285,100.107,58.154,91.455
			L58.154,91.455z"/>
		<path class="st0" d="M169.884,133.289c-32.271,23.019-77.193,15.372-100.335-17.072c-5.496-7.705-9.263-16.11-11.395-24.762
			C51.32,63.663,61.46,33.344,86.07,15.789C118.341-7.23,163.259,0.411,186.406,32.861
			C209.548,65.305,202.154,110.27,169.884,133.289L169.884,133.289z"/>
	</g>
</g>
<g id="b">
	<g>
		<path class="st1" d="M51.175,97.008v6.823c0,3.412-0.647,6.645-1.938,9.692c-1.294,3.051-3.077,5.765-5.35,8.142
			c-2.275,2.379-4.938,4.265-7.986,5.66c-3.051,1.396-6.334,2.094-9.847,2.094c-3,0-6.048-0.415-9.149-1.241
			c-3.102-0.826-5.893-2.272-8.374-4.342c-2.481-2.066-4.524-4.729-6.125-7.986C0.8,112.593,0,108.433,0,103.367v-60.79
			c0-3.618,0.62-6.978,1.861-10.08s2.998-5.789,5.272-8.064c2.273-2.273,4.987-4.056,8.142-5.35
			c3.152-1.292,6.642-1.938,10.467-1.938c7.444,0,13.492,2.43,18.144,7.289c2.273,2.379,4.056,5.195,5.35,8.452
			c1.292,3.256,1.938,6.799,1.938,10.623v6.203H35.357v-5.273c0-3.101-0.879-5.789-2.636-8.063
			c-1.759-2.273-4.136-3.412-7.133-3.412c-3.93,0-6.54,1.217-7.832,3.645c-1.294,2.43-1.938,5.505-1.938,9.227v56.447
			c0,3.206,0.698,5.894,2.094,8.064s3.901,3.257,7.521,3.257c1.032,0,2.145-0.18,3.334-0.543c1.188-0.361,2.3-0.955,3.334-1.783
			c0.93-0.827,1.706-1.963,2.326-3.412c0.62-1.446,0.93-3.257,0.93-5.428v-5.428H51.175z"/>
		<path class="st1" d="M208.257,128.489V18.076h15.818v94.596h31.324v15.817H208.257z"/>
		<path class="st1" d="M265.634,128.489V18.076h15.818v94.596h31.324v15.817H265.634z"/>
		<path d="M333.401,128.489V32.963h-18.299V18.076h52.415v14.887h-18.299v95.526H333.401z"/>
		<path d="M425.667,18.076v85.602c0,3.619-0.646,6.954-1.938,10.002c-1.294,3.051-3.128,5.765-5.505,8.142
			c-2.38,2.379-5.117,4.24-8.219,5.582c-3.102,1.343-6.412,2.017-9.925,2.017c-3.517,0-6.8-0.674-9.848-2.017
			c-3.051-1.342-5.765-3.203-8.142-5.582c-2.379-2.377-4.24-5.091-5.582-8.142c-1.345-3.048-2.017-6.383-2.017-10.002V18.076h15.818
			v84.051c0,3.93,0.93,6.823,2.791,8.684c1.86,1.861,4.187,2.792,6.979,2.792c2.791,0,5.117-0.931,6.979-2.792
			c1.86-1.86,2.791-4.754,2.791-8.684V18.076H425.667z"/>
		<path d="M439.934,128.489V18.076h15.197l23.882,66.527h0.31V18.076h15.818v110.413h-14.888l-24.191-66.372h-0.311v66.372H439.934z
			"/>
		<path d="M509.405,128.489V18.076h47.143v14.887h-31.324v32.411h27.293V80.26h-27.293v32.411h31.324v15.817H509.405z"/>
	</g>
	<g id="c">
		<g>
			<defs>
				<circle id="SVGID_1_" cx="129.799" cy="74.537" r="72.038"/>
			</defs>
			<clipPath id="SVGID_00000160886301958655935940000006770209011901513356_">
				<use xlink:href="#SVGID_1_"  style="overflow:visible;"/>
			</clipPath>
			<g style="clip-path:url(#SVGID_00000160886301958655935940000006770209011901513356_);">
				<path class="st3" d="M131.866,4.382l-0.348,1.893c-0.044,0.237-0.059,0.478-0.047,0.718l0.262,5.102
					c0.016,0.304,0.076,0.604,0.179,0.89l2.487,6.907c0.061,0.169,0.136,0.332,0.225,0.487l1.671,2.923
					c0.401,0.702,1.061,1.219,1.838,1.441l1.607,0.459c0.245,0.07,0.499,0.11,0.754,0.118l3.8,0.119
					c0.445,0.014,0.888-0.068,1.298-0.241l1.166-0.491c0.706-0.297,1.277-0.846,1.602-1.539l3.87-8.256
					c0.12-0.256,0.204-0.527,0.251-0.805l0.432-2.589c0.07-0.419,0.053-0.848-0.05-1.26l-0.558-2.233
					c-0.03-0.119-0.067-0.236-0.11-0.351l-0.535-1.404c-0.382-1.002-1.255-1.736-2.309-1.938L135.98,1.761
					c-0.48-0.092-0.976-0.07-1.445,0.066l-0.484,0.14C132.924,2.293,132.078,3.228,131.866,4.382L131.866,4.382z"/>
				<path class="st3" d="M157.024,11.923l-0.839,0.742c-0.693,0.613-1.239,1.374-1.597,2.227l-2.261,5.384
					c-0.254,0.604-0.41,1.246-0.461,1.899l-0.184,2.335c-0.124,1.572,0.36,3.132,1.352,4.358l0.269,0.333
					c0.506,0.625,1.13,1.146,1.837,1.531l3.79,2.067c0.101,0.055,0.203,0.107,0.307,0.156l4.665,2.216
					c0.825,0.392,1.728,0.595,2.641,0.595l0,0c1.176,0,2.328-0.337,3.318-0.971l1.859-1.19c0.279-0.179,0.544-0.38,0.791-0.601
					l2.818-2.526c0.796-0.714,1.393-1.622,1.731-2.637l0.16-0.479c0.353-1.058,0.411-2.193,0.169-3.282l-0.246-1.106
					c-0.195-0.876-0.578-1.699-1.124-2.411l-3.21-4.185c-0.392-0.511-0.861-0.957-1.39-1.322l-4.369-3.013
					c-0.551-0.38-1.16-0.667-1.803-0.851l-1.733-0.495c-0.323-0.092-0.652-0.158-0.986-0.196l-0.72-0.083
					C160.072,10.218,158.333,10.765,157.024,11.923z"/>
				<path class="st3" d="M129.175,119.307l-3.993,2.662c-0.071,0.047-0.141,0.097-0.209,0.149l-0.298,0.229
					c-0.986,0.758-1.537,1.952-1.475,3.194l0.044,0.88c0.006,0.116,0.017,0.232,0.033,0.347l0.537,3.759
					c0.03,0.213,0.079,0.423,0.145,0.628l1.375,4.262c0.03,0.092,0.063,0.182,0.099,0.272l1.213,2.966
					c0.066,0.161,0.142,0.316,0.229,0.466l0.298,0.514c0.514,0.887,1.365,1.527,2.359,1.776l0.011,0.003
					c0.169,0.042,0.341,0.073,0.515,0.092l3.668,0.395c0.204,0.022,0.41,0.027,0.616,0.016l1.128-0.063
					c0.841-0.047,1.642-0.372,2.277-0.924l2.318-2.016c0.129-0.113,0.266-0.216,0.41-0.31l3.022-1.98
					c0.753-0.493,1.305-1.238,1.559-2.101l0.68-2.311c0.285-0.969,0.171-2.012-0.316-2.898l-0.157-0.285
					c-0.197-0.358-0.45-0.681-0.75-0.958l-4.418-4.078c-0.094-0.087-0.183-0.178-0.268-0.274l-3.245-3.669
					c-0.08-0.091-0.164-0.177-0.253-0.26l-1.053-0.983c-0.702-0.655-1.626-1.02-2.587-1.02l0,0c-0.711,0-1.407,0.2-2.009,0.576
					L129.175,119.307L129.175,119.307z"/>
				<path class="st3" d="M106.262,104.068l-0.969,3.985c-0.173,0.713-0.206,1.453-0.096,2.179l0.445,2.94
					c0.098,0.644,0.306,1.265,0.615,1.838l2.139,3.956c0.285,0.528,0.653,1.007,1.09,1.419l0.651,0.615
					c0.922,0.871,2.111,1.406,3.375,1.518l3.618,0.322c0.833,0.074,1.671-0.038,2.456-0.328l4.975-1.839
					c0.543-0.201,1.051-0.483,1.508-0.839l3.791-2.949c0.65-0.505,1.181-1.147,1.557-1.879l1.665-3.247
					c0.522-1.018,0.722-2.17,0.574-3.305l0,0c-0.149-1.14-0.642-2.207-1.414-3.059l-3.218-3.551l-4.262-4.703
					c-0.094-0.104-0.193-0.205-0.295-0.302l-1.251-1.188c-1.049-0.996-2.44-1.552-3.886-1.552h-0.479
					c-0.899,0-1.785,0.215-2.584,0.626l-3.182,1.639c-0.407,0.21-0.787,0.468-1.132,0.77l-3.453,3.021
					c-0.585,0.512-1.059,1.14-1.39,1.844l-0.47,0.999C106.478,103.342,106.352,103.7,106.262,104.068L106.262,104.068z"/>
				<path class="st3" d="M122.047,71.557c0.39,0.84,0.56,1.77,0.48,2.7l-0.31,3.56c-0.02,0.22-0.05,0.45-0.1,0.67l-1.34,6.18
					c-0.07,0.31-0.17,0.62-0.29,0.92l-1.81,4.31c-0.48,1.14-1.34,2.09-2.45,2.66l-1.32,0.7c-0.31,0.16-0.6,0.34-0.87,0.56
					l-5.51,4.41c-0.1,0.08-0.21,0.16-0.32,0.24l-2.82,1.93c-1.46,1-3.32,1.21-4.96,0.57l-0.86-0.34l-3.79-1.54
					c-0.21-0.09-0.41-0.18-0.61-0.29l-0.71-0.4c-0.93-0.53-1.68-1.31-2.15-2.27l-0.9-1.78c-0.43-0.86-0.61-1.81-0.55-2.77l0.13-1.74
					c0.05-0.69,0.23-1.37,0.55-2l2.02-4.05c0.16-0.31,0.34-0.61,0.56-0.89l2.39-3.07c0.32-0.4,0.69-0.76,1.1-1.06l5.2-3.73
					c0.47-0.33,0.88-0.74,1.21-1.2l3.12-4.29c0.32-0.44,0.69-0.82,1.12-1.14l2.99-2.24c0.8-0.6,1.75-0.96,2.75-1.05
					c1.36-0.11,2.71,0.3,3.78,1.15l1.92,1.54c0.64,0.51,1.15,1.17,1.5,1.92C121.197,69.727,122.047,71.557,122.047,71.557z"/>
				<path class="st3" d="M89.266,101.508l-4.511,3.986c-0.45,0.397-0.815,0.881-1.075,1.421l-0.593,1.235
					c-0.534,1.112-0.587,2.394-0.146,3.546l0.736,1.925c0.355,0.929,1.009,1.714,1.859,2.232l1.22,0.743
					c0.631,0.384,1.348,0.607,2.085,0.648l6.506,0.361c0.378,0.021,0.758-0.006,1.13-0.08l2.314-0.463
					c0.609-0.122,1.186-0.368,1.694-0.724l0.7-0.49c1.001-0.7,1.673-1.778,1.861-2.985l0.354-2.266
					c0.073-0.467,0.072-0.942-0.003-1.408l-0.436-2.705c-0.137-0.848-0.514-1.639-1.087-2.279l-0.953-1.065
					c-0.494-0.552-1.116-0.973-1.812-1.226l-3.28-1.193c-0.445-0.162-0.912-0.252-1.385-0.268l-2.057-0.069
					C91.243,100.347,90.125,100.749,89.266,101.508L89.266,101.508z"/>
				<path class="st3" d="M76.091,108.482l4.96-1.86c0.392-0.147,0.754-0.367,1.065-0.647l3.859-3.473
					c0.15-0.135,0.287-0.283,0.41-0.442l2.1-2.718c0.196-0.254,0.355-0.535,0.472-0.835l0.573-1.474
					c0.206-0.53,0.274-1.104,0.197-1.668l-0.2-1.466c-0.09-0.662-0.376-1.281-0.821-1.779l-2.572-2.88
					c-0.356-0.399-0.803-0.707-1.303-0.898l-3.935-1.505c-0.31-0.118-0.635-0.19-0.966-0.213l-3.682-0.254
					c-0.149-0.01-0.298-0.011-0.446-0.001l-4.224,0.273c-0.173,0.011-0.347,0.009-0.519-0.007l-6.013-0.547
					c-0.272-0.025-0.546-0.016-0.815,0.026l-3.63,0.561c-1.634,0.253-2.839,1.659-2.839,3.312v3.009
					c0,0.428,0.082,0.851,0.241,1.248l3.553,8.855c0.03,0.074,0.062,0.147,0.097,0.218l1.764,3.626
					c0.561,1.153,1.731,1.885,3.014,1.885h4.129l4.456-0.135C75.383,108.683,75.746,108.612,76.091,108.482z"/>
				<path class="st3" d="M80.316,121.866l0.027-0.013c0.159-0.077,0.324-0.144,0.492-0.198l5.241-1.703
					c0.384-0.125,0.786-0.188,1.19-0.188h5.616l3.935,0.109c0.984,0.027,1.919,0.43,2.615,1.126l1.938,1.938
					c0.212,0.212,0.399,0.449,0.556,0.704l1.561,2.536c0.411,0.669,0.609,1.447,0.565,2.231l-0.205,3.682
					c-0.021,0.385-0.101,0.765-0.235,1.127l-1.771,4.769l0,0c-0.736,2.126-3.131,3.171-5.19,2.263l-4.701-2.071
					c-0.289-0.127-0.562-0.29-0.811-0.484l-9.056-7.043c-0.09-0.07-0.177-0.144-0.261-0.222l-2.45-2.283
					C77.395,126.302,77.884,123.047,80.316,121.866z"/>
				<path class="st3" d="M111.038,52.115l-1.109,1.331c-0.222,0.266-0.343,0.601-0.343,0.948v4.381c0,0.26,0.069,0.516,0.199,0.742
					l1.125,1.943c0.22,0.379,0.596,0.642,1.027,0.717l2.48,0.431c0.218,0.038,0.442,0.026,0.655-0.034l5.149-1.452
					c0.293-0.083,0.553-0.253,0.745-0.489l4.315-5.29c0.064-0.079,0.12-0.164,0.167-0.254l2.363-4.555
					c0.109-0.211,0.166-0.444,0.166-0.682V47.77c0-0.381-0.147-0.747-0.41-1.023l-2.091-2.187c-0.258-0.27-0.61-0.433-0.983-0.455
					l-1.646-0.097c-0.233-0.014-0.466,0.028-0.68,0.122l-4.312,1.886c-0.147,0.064-0.282,0.152-0.401,0.26l-6.274,5.69
					C111.13,52.013,111.082,52.062,111.038,52.115z"/>
				<path class="st4" d="M126.448,73.612l-1.341,1.43c-0.42,0.448-0.725,0.993-0.886,1.586l-1.12,4.108l-1.644,6.849
					c-0.118,0.491-0.136,1.001-0.053,1.499l0.271,1.628c0.136,0.818,0.539,1.569,1.146,2.135l0.257,0.24
					c0.698,0.651,1.616,1.013,2.571,1.013h1.695c0.888,0,1.748-0.314,2.427-0.886l1.55-1.305c0.189-0.159,0.361-0.336,0.515-0.528
					l2.198-2.748l1.895-2.211c0.543-0.634,0.861-1.43,0.902-2.264l0.045-0.9c0.028-0.56-0.069-1.12-0.285-1.637l-1.191-2.858
					l-1.67-4.225l-0.149-0.366c-0.557-1.366-1.859-2.281-3.332-2.342l0,0c-0.797-0.033-1.583,0.187-2.247,0.63l-0.895,0.597
					C126.867,73.215,126.646,73.402,126.448,73.612z"/>
				<path class="st4" d="M136.459,70.54l-0.548,1.133c-0.306,0.632-0.4,1.346-0.269,2.036l0.416,2.186
					c0.034,0.18,0.084,0.357,0.148,0.529l1.262,3.39c0.077,0.207,0.175,0.406,0.292,0.593l0.889,1.421
					c0.436,0.697,1.118,1.204,1.91,1.421l1.155,0.316c0.195,0.053,0.394,0.088,0.596,0.105l4.701,0.386
					c0.237,0.019,0.475,0.013,0.711-0.019l0.006-0.001c1.11-0.152,2.066-0.862,2.532-1.881l0.028-0.062
					c0.195-0.427,0.296-0.89,0.296-1.359v-3.832c0-0.099-0.005-0.199-0.014-0.298l-0.379-4.146c-0.006-0.07-0.015-0.139-0.026-0.209
					l-0.628-4.008c-0.104-0.664-0.41-1.28-0.877-1.764l-1.001-1.037c-0.535-0.555-1.249-0.903-2.015-0.982l-0.497-0.052
					c-0.732-0.076-1.468,0.096-2.09,0.49l-3.723,2.359c-0.271,0.172-0.516,0.383-0.726,0.626l-1.681,1.948
					C136.741,70.043,136.583,70.283,136.459,70.54z"/>
				<polygon class="st4" points="166.575,64.183 167.29,68.659 168.809,71.848 173.213,73.67 178.983,73.518 180.805,72.303 
					180.805,69.722 180.35,66.533 178.802,62.851 176.705,59.699 175.035,58.333 171.694,57.877 169.287,58.616 167.669,60.662 				
					"/>
				<path class="st4" d="M171.204,37.172l-2.076,2.537c-0.626,0.765-0.983,1.715-1.016,2.702l-0.174,5.217
					c-0.004,0.131-0.003,0.262,0.004,0.393l0.135,2.501c0.055,1.023,0.458,1.997,1.141,2.76v0c0.593,0.663,1.37,1.136,2.231,1.358
					l1.089,0.281c0.769,0.198,1.576,0.19,2.34-0.024l3.518-0.985c0.719-0.201,1.377-0.578,1.914-1.097l2.534-2.447l4.197-4.094
					c0.36-0.351,0.658-0.76,0.883-1.21l0.765-1.531c0.41-0.819,0.56-1.744,0.43-2.651l-0.108-0.757
					c-0.102-0.714-0.374-1.394-0.794-1.981l-2.252-3.153l-1.525-1.927c-0.441-0.558-1.008-1.003-1.655-1.299l-0.657-0.301
					c-0.742-0.34-1.563-0.472-2.374-0.382l-0.938,0.104c-0.622,0.069-1.223,0.267-1.764,0.582l-2.102,1.221
					c-0.437,0.254-0.829,0.58-1.158,0.964l-1.467,1.711c-0.078,0.091-0.152,0.185-0.223,0.282l-0.744,1.023
					C171.31,37.038,171.258,37.106,171.204,37.172L171.204,37.172z"/>
				<path class="st4" d="M138.139,144.661L138.139,144.661c-0.031-0.331,0.031-0.664,0.18-0.961l0.873-1.745
					c0.12-0.239,0.292-0.448,0.503-0.612l2.805-2.167c0.127-0.098,0.266-0.178,0.414-0.239l2.75-1.125
					c0.227-0.093,0.47-0.138,0.715-0.132l2.489,0.058c0.252,0.006,0.499,0.065,0.726,0.174l1.063,0.508
					c0.216,0.103,0.408,0.249,0.566,0.428l0.669,0.758c0.147,0.167,0.262,0.36,0.338,0.569l0.359,0.986
					c0.085,0.234,0.12,0.484,0.103,0.733l-0.032,0.449c-0.025,0.353-0.154,0.69-0.372,0.969l-0.353,0.452
					c-0.272,0.349-0.665,0.584-1.101,0.659l-10.623,1.826C139.19,146.424,138.235,145.693,138.139,144.661L138.139,144.661z"/>
				<path class="st4" d="M74.712,122.176l2.765-0.682c0.141-0.035,0.274-0.096,0.391-0.182l2.833-2.056
					c0.028-0.02,0.057-0.039,0.086-0.057l0.968-0.575c0.348-0.207,0.558-0.584,0.55-0.988l-0.034-1.814
					c-0.002-0.093-0.015-0.186-0.04-0.277l-0.608-2.214c-0.029-0.107-0.074-0.209-0.134-0.303l-0.886-1.403
					c-0.134-0.211-0.334-0.372-0.569-0.457l-1.231-0.444c-0.118-0.043-0.243-0.065-0.369-0.067l-4.093-0.047h-2.258
					c-0.037,0-0.075,0.002-0.112,0.006l-2.898,0.29l-1.368,0.114c-0.568,0.047-1.01,0.511-1.031,1.081l0,0
					c-0.009,0.247,0.064,0.49,0.207,0.691l5.633,7.932c0.036,0.051,0.077,0.1,0.122,0.144l1.011,1.011
					C73.926,122.157,74.33,122.27,74.712,122.176L74.712,122.176z"/>
				<path class="st5" d="M183.694,121.406c0.754-1.153,0.017-2.694-1.354-2.831l0,0l-3.947-0.263
					c-0.368-0.025-0.735,0.062-1.053,0.249l-1.476,0.868c-0.382,0.225-0.67,0.581-0.811,1.002l-0.734,2.203
					c-0.067,0.2-0.098,0.41-0.094,0.62l0.038,1.74c0.018,0.827,0.587,1.54,1.39,1.741l0.433,0.108
					c0.207,0.052,0.422,0.067,0.634,0.045l1.249-0.129c0.396-0.041,0.768-0.21,1.06-0.481l3.597-3.34
					c0.109-0.101,0.206-0.216,0.287-0.341L183.694,121.406L183.694,121.406z"/>
				<path class="st5" d="M156.173,123.371l1.352,2.181c0.366,0.591,0.905,1.047,1.549,1.308c1.464,0.592,4.062,1.629,4.277,1.629
					c0.216,0,2.917-0.466,4.421-0.728c0.649-0.113,1.245-0.419,1.717-0.879l1.451-1.413c0.446-0.434,0.759-0.986,0.902-1.591
					l0.414-1.75c0.028-0.12,0.05-0.242,0.065-0.365l0.273-2.271c0.1-0.837-0.126-1.681-0.632-2.355l0,0
					c-0.508-0.677-1.257-1.131-2.092-1.267l-2.206-0.36c-0.118-0.019-0.236-0.045-0.351-0.077l-3.78-1.053
					c-0.418-0.116-0.855-0.149-1.285-0.095l-3.331,0.416c-0.544,0.068-1.062,0.272-1.507,0.592l-0.248,0.178
					c-0.617,0.444-1.06,1.089-1.253,1.824l-0.31,1.179c-0.094,0.358-0.127,0.73-0.097,1.1l0.191,2.339
					C155.735,122.429,155.9,122.929,156.173,123.371L156.173,123.371z"/>
				<path class="st5" d="M60.069,52.774l0.919,1.181c0.254,0.326,0.623,0.543,1.031,0.606l0,0c0.633,0.097,1.541-0.163,1.886-0.702
					c0,0,3.085-3.46,3.199-3.586l3.648-4.013c0.034-0.038,0.067-0.077,0.097-0.118l1.102-1.469c0.257-0.342,0.367-0.772,0.308-1.196
					l-0.799-5.71c-0.008-0.054-0.018-0.107-0.031-0.16l-0.893-3.652c-0.046-0.187-0.125-0.365-0.233-0.524l-0.79-1.164
					l-7.594,11.392c-0.098,0.148-0.172,0.311-0.218,0.482l-1.919,7.224C59.653,51.854,59.759,52.375,60.069,52.774z"/>
				<path class="st5" d="M126.466,55.761l-4.114,6.347c-0.205,0.316-0.305,0.687-0.287,1.063l0.083,1.741
					c0.012,0.258,0.08,0.511,0.199,0.74l1.474,2.85c0.182,0.353,0.476,0.635,0.836,0.803l0.931,0.434
					c0.294,0.137,0.621,0.192,0.944,0.159l3.267-0.336l4.611-0.347c0.348-0.026,0.68-0.153,0.957-0.364l3.871-2.96
					c0.061-0.047,0.126-0.09,0.193-0.129l5.29-3.056c0.273-0.158,0.5-0.385,0.658-0.658l1.573-2.726
					c0.081-0.141,0.143-0.292,0.183-0.449l0.85-3.294c0.079-0.307,0.076-0.63-0.01-0.936l-0.903-3.211
					c-0.083-0.296-0.242-0.566-0.459-0.784l-2.13-2.13c-0.325-0.325-0.763-0.513-1.222-0.526l-3.78-0.102
					c-0.185-0.005-0.37,0.019-0.548,0.07l-4.453,1.289c-0.121,0.035-0.238,0.083-0.349,0.142l-3.188,1.708
					c-0.171,0.092-0.327,0.211-0.46,0.352l-3.817,4.056C126.591,55.586,126.525,55.671,126.466,55.761z"/>
				<path class="st6" d="M150.255,35.258l-1.862,4.77c-0.028,0.072-0.053,0.145-0.074,0.22l-1.133,3.966
					c-0.083,0.29-0.112,0.593-0.086,0.894l0.13,1.493c0.057,0.654,0.371,1.258,0.873,1.68l1.752,1.472
					c0.446,0.374,1.009,0.58,1.591,0.58h2.886c0.142,0,0.284-0.012,0.424-0.037l5.656-0.984c0.047-0.008,0.093-0.015,0.14-0.02
					l2.309-0.266c0.627-0.072,1.202-0.381,1.609-0.864l0.923-1.096c0.331-0.394,0.532-0.881,0.573-1.393l0.288-3.548
					c0.023-0.29-0.004-0.582-0.082-0.862l-0.283-1.02c-0.158-0.567-0.512-1.06-1-1.389l-4.551-3.07
					c-0.161-0.108-0.333-0.197-0.515-0.265l-4.469-1.676c-0.278-0.104-0.572-0.157-0.869-0.157h-1.925
					c-0.707,0-1.379,0.302-1.849,0.83l0,0C150.516,34.733,150.362,34.985,150.255,35.258L150.255,35.258z"/>
				<path class="st6" d="M190.305,106.098l-0.347-0.009c-0.112-0.003-0.225,0.001-0.337,0.012l-3.53,0.353
					c-0.116,0.012-0.231,0.031-0.344,0.057l-5.338,1.249c-0.368,0.086-0.713,0.249-1.013,0.478l-1.853,1.412
					c-0.266,0.202-0.491,0.453-0.665,0.738l-1.153,1.895c-0.255,0.42-0.391,0.902-0.391,1.393l0,0c0,0.6,0.202,1.183,0.572,1.655
					l0.351,0.446c0.324,0.412,0.762,0.72,1.259,0.886l1.487,0.496c0.305,0.102,0.625,0.148,0.946,0.136l2.902-0.107
					c0.065-0.002,0.13-0.002,0.195,0l3.558,0.127c0.723,0.026,1.426-0.242,1.948-0.742l0.68-0.651
					c0.198-0.189,0.365-0.408,0.497-0.648l2.854-5.209C193.547,108.305,192.309,106.15,190.305,106.098L190.305,106.098z"/>
				<path class="st6" d="M148.712,133.401l-0.006-0.135c-0.034-0.724,0.162-1.441,0.56-2.047l0.825-1.257
					c0.236-0.359,0.537-0.671,0.887-0.919l1.056-0.748c0.731-0.518,1.636-0.73,2.521-0.591l1.825,0.286
					c0.301,0.047,0.595,0.135,0.874,0.259l3.518,1.577c0.15,0.067,0.295,0.145,0.433,0.233l1.094,0.693
					c0.555,0.352,0.998,0.855,1.276,1.451l0.136,0.291c0.289,0.619,0.387,1.31,0.281,1.985l-0.114,0.732
					c-0.055,0.35-0.163,0.69-0.322,1.007l0,0c-0.482,0.964-1.388,1.646-2.448,1.843l-2.898,0.538
					c-0.294,0.055-0.594,0.071-0.892,0.048l-2.469-0.19c-0.535-0.041-1.052-0.207-1.512-0.484l-2.221-1.339l-0.744-0.449
					C149.389,135.593,148.766,134.548,148.712,133.401L148.712,133.401z"/>
				<path class="st6" d="M136.308,145.072L136.308,145.072c-0.056-0.187-0.163-0.354-0.308-0.483l-1.571-1.396
					c-0.158-0.141-0.355-0.23-0.565-0.257l-3.756-0.478c-0.044-0.006-0.088-0.008-0.133-0.008h-2.211c-0.19,0-0.377,0.052-0.54,0.15
					l-1.083,0.65c-0.117,0.07-0.218,0.162-0.3,0.27l-0.865,1.153c-0.094,0.125-0.159,0.27-0.19,0.424l-0.025,0.126
					c-0.123,0.613,0.314,1.197,0.937,1.252l4.694,0.416c0.065,0.006,0.13,0.005,0.195-0.001l4.816-0.47
					C136.063,146.355,136.498,145.706,136.308,145.072L136.308,145.072z"/>
				<path class="st6" d="M80.428,69.86l-1.477,0.933c-0.529,0.334-0.934,0.832-1.154,1.418l-0.203,0.541
					c-0.121,0.322-0.183,0.663-0.183,1.007v5.048c0,0.308,0.05,0.615,0.147,0.907l0.816,2.448c0.234,0.701,0.729,1.285,1.382,1.63
					l3.088,1.63c0.158,0.084,0.324,0.152,0.495,0.205l2.28,0.701c0.395,0.122,0.813,0.156,1.223,0.102l2.07-0.276
					c0.603-0.08,1.164-0.35,1.604-0.77l1.708-1.634c0.258-0.247,0.468-0.541,0.619-0.865l1.12-2.413
					c0.146-0.314,0.233-0.651,0.259-0.996l0.134-1.811c0.045-0.601-0.102-1.202-0.418-1.715l-0.369-0.6
					c-0.073-0.119-0.155-0.233-0.245-0.34l-2.944-3.511c-0.039-0.046-0.076-0.093-0.111-0.142l-1.096-1.488
					c-0.351-0.476-0.841-0.833-1.402-1.02l-1.398-0.466c-0.418-0.139-0.863-0.181-1.299-0.12l-2.184,0.301
					c-0.429,0.059-0.839,0.215-1.199,0.455L80.428,69.86L80.428,69.86z"/>
				<path class="st7" d="M90.584,51.933l-1.941,1.803c-0.226,0.21-0.4,0.471-0.505,0.762l-0.696,1.915
					c-0.081,0.223-0.121,0.459-0.117,0.696l0.073,4.759c0.002,0.126,0.016,0.251,0.042,0.374l0.337,1.591
					c0.123,0.58,0.504,1.073,1.034,1.338l0,0c0.504,0.252,1.092,0.273,1.613,0.059l1.518-0.625c0.288-0.118,0.543-0.304,0.744-0.541
					l1.69-1.992c0.19-0.224,0.327-0.489,0.401-0.774l0.446-1.73c0.063-0.243,0.078-0.496,0.045-0.744l-0.4-3.001
					c-0.026-0.196-0.082-0.387-0.166-0.566l-0.736-1.577c-0.182-0.39-0.488-0.709-0.87-0.906l-1.778-0.92
					C91.318,51.852,90.584,51.933,90.584,51.933z"/>
				<path class="st7" d="M96.533,52.327l-0.147,0.197c-0.269,0.358-0.414,0.794-0.414,1.243v2.078c0,0.327,0.077,0.649,0.226,0.94
					l1.798,3.53c0.119,0.234,0.282,0.443,0.479,0.616l2.424,2.129c0.401,0.352,0.922,0.536,1.454,0.513l2.317-0.099
					c0.447-0.019,0.877-0.183,1.223-0.466l1.4-1.146c0.481-0.393,0.76-0.982,0.76-1.603v-2.452c0-0.16-0.018-0.319-0.055-0.474
					l-0.473-2.012c-0.082-0.348-0.252-0.668-0.494-0.93l-0.32-0.347c-0.191-0.207-0.423-0.373-0.681-0.488l-1.624-0.722
					c-0.126-0.056-0.257-0.099-0.392-0.129l-4.206-0.935l-1.231-0.234c-0.318-0.061-0.645-0.046-0.956,0.043l0,0
					C97.186,51.703,96.804,51.966,96.533,52.327z"/>
				<path class="st7" d="M94.474,63.864l-1.429,1.093c-0.383,0.293-0.692,0.672-0.902,1.107l-0.432,0.894
					c-0.256,0.531-0.355,1.123-0.284,1.708l0.131,1.081c0.057,0.472,0.223,0.924,0.484,1.321l1.424,2.165
					c0.146,0.221,0.319,0.423,0.517,0.6l1.165,1.044c0.582,0.522,1.34,0.802,2.121,0.785l1.404-0.031
					c0.733-0.016,1.436-0.293,1.983-0.781l1.275-1.139c0.109-0.097,0.21-0.202,0.304-0.313l1.908-2.266
					c0.368-0.437,0.608-0.969,0.691-1.535l0.183-1.246c0.064-0.438,0.034-0.885-0.09-1.309l0,0c-0.244-0.837-0.831-1.531-1.616-1.91
					l-0.821-0.396c-0.208-0.1-0.427-0.177-0.652-0.229l-2.404-0.549c-0.076-0.017-0.152-0.038-0.226-0.061l-1.738-0.539
					c-0.342-0.106-0.701-0.152-1.059-0.135l-0.214,0.01C95.572,63.265,94.971,63.484,94.474,63.864L94.474,63.864z"/>
				<path class="st7" d="M58.819,70.299l1.298,0.002c0.228,0,0.454,0.029,0.675,0.086l1.472,0.377
					c0.865,0.222,1.567,0.852,1.88,1.688l0.305,0.815c0.115,0.307,0.174,0.632,0.174,0.96v4.811c0,0.128-0.089,1.031-0.174,1.867
					c-0.094,0.922-0.649,1.733-1.474,2.156l-2.102,1.075c-0.058,0.03-0.117,0.057-0.177,0.083l-1.845,0.783
					c-0.495,0.21-1.04,0.269-1.569,0.171l-0.39-0.073l-0.804-11.882c-0.006-0.093-0.008-0.187-0.005-0.28l0,0
					C56.136,71.463,57.346,70.297,58.819,70.299z"/>
				<path class="st7" d="M66.19,73.953l-0.084,1.006c-0.009,0.106-0.011,0.213-0.008,0.319l0.236,6.857
					c0.002,0.057,0.006,0.114,0.013,0.17l0,0c0.139,1.206,1.062,2.173,2.259,2.369l2.171,0.355c0.196,0.032,0.394,0.043,0.592,0.031
					l3.02-0.171c0.638-0.036,1.226-0.358,1.601-0.876l0,0c0.303-0.419,0.442-0.934,0.392-1.449l-0.232-2.373
					c-0.011-0.117-0.03-0.233-0.057-0.347l-0.695-3.012l-0.408-2.296l-0.166-0.827c-0.154-0.765-0.629-1.427-1.305-1.817
					l-0.805-0.464c-0.169-0.097-0.348-0.176-0.534-0.236l-0.665-0.212c-0.553-0.176-1.148-0.17-1.697,0.016L68.22,71.54
					l-0.197,0.067C67,71.954,66.28,72.876,66.19,73.953L66.19,73.953z"/>
				<path class="st7" d="M68.091,68.687l1.422,0.348c0.114,0.028,0.23,0.05,0.347,0.065l4.204,0.561
					c0.344,0.046,0.693,0.037,1.034-0.026l3.22-0.596c0.444-0.082,0.867-0.255,1.241-0.508l2.943-1.985l1.621-1.204
					c0.783-0.582,1.268-1.482,1.323-2.456l0.151-2.671c0.004-0.079,0.006-0.158,0.005-0.237l-0.067-4.341
					c-0.009-0.556-0.158-1.1-0.433-1.582l-0.537-0.939c-0.23-0.403-0.543-0.753-0.918-1.026l-3.175-2.315
					c-0.116-0.085-0.237-0.161-0.363-0.23L76.03,47.32c-0.148-0.081-0.302-0.15-0.461-0.207l0,0
					c-1.114-0.401-2.358-0.173-3.257,0.598l-3.117,2.672l-1.843,1.621c-0.132,0.116-0.255,0.243-0.366,0.379l-1.755,2.131
					c-0.24,0.292-0.428,0.622-0.556,0.977l-0.259,0.718c-0.186,0.516-0.24,1.069-0.157,1.611l0.609,3.991l0.765,4.26
					C65.863,67.353,66.826,68.378,68.091,68.687z"/>
				<path class="st7" d="M57.688,68.129l2.125,0.045c0.157,0.003,0.314-0.024,0.461-0.079l2.145-0.812
					c0.404-0.153,0.699-0.507,0.775-0.933l0.405-2.259c0.028-0.158,0.026-0.32-0.008-0.476l-1.081-5.017
					c-0.007-0.035-0.016-0.069-0.027-0.103l-0.508-1.651c-0.084-0.272-0.259-0.506-0.496-0.663l-1.014-0.672
					c-0.093-0.061-0.193-0.11-0.299-0.144l0,0c-0.68-0.221-1.405,0.182-1.575,0.876l-1.611,6.563
					c-0.012,0.048-0.021,0.096-0.026,0.145l-0.462,3.803C56.406,67.473,56.961,68.113,57.688,68.129z"/>
				<path class="st7" d="M71.715,30.58l1.229,4.35c0.03,0.106,0.054,0.214,0.072,0.323l0.988,5.925
					c0.035,0.213,0.094,0.421,0.174,0.622l0.621,1.552c0.213,0.533,0.575,0.995,1.043,1.329L77.8,46.08
					c0.086,0.062,0.176,0.119,0.268,0.171l5.815,3.287c0.125,0.071,0.255,0.132,0.389,0.185l1.54,0.599
					c0.435,0.169,0.904,0.235,1.369,0.191l2.381-0.223c0.761-0.071,1.466-0.43,1.972-1.003l0.715-0.81
					c0.329-0.373,0.56-0.821,0.673-1.305l0.7-3c0.042-0.178,0.067-0.36,0.075-0.543l0.254-5.466l0.401-7.21l0.117-3.146
					c0.011-0.304-0.024-0.608-0.104-0.901l-1.325-4.858c-0.103-0.379-0.28-0.734-0.52-1.045l-2.896-3.752
					c-0.052-0.067-0.107-0.133-0.164-0.195l-0.605-0.66c-0.989-1.078-2.61-1.286-3.84-0.494l-3.569,2.3
					c-0.207,0.133-0.397,0.292-0.565,0.471l-8.468,9.04C71.693,28.478,71.428,29.567,71.715,30.58L71.715,30.58z"/>
				<path class="st7" d="M126.52,31.677l-1.201,1.365c-0.748,0.851-1.14,1.957-1.094,3.089l0.13,3.187
					c0.028,0.683,0.214,1.35,0.544,1.948l0.993,1.799c0.304,0.551,0.722,1.03,1.226,1.405l2.201,1.639
					c0.211,0.157,0.436,0.295,0.672,0.412l0.482,0.239c0.894,0.444,1.911,0.57,2.886,0.36l4.727-1.02l2.779-0.526
					c1.119-0.212,2.112-0.848,2.771-1.776l1.862-2.62c0.272-0.383,0.481-0.807,0.619-1.256l1.521-4.942
					c0.15-0.487,0.214-0.996,0.19-1.505l-0.067-1.41c-0.012-0.258-0.047-0.515-0.105-0.767l-0.161-0.707
					c-0.235-1.034-0.835-1.948-1.69-2.575v0c-0.337-0.247-0.707-0.445-1.099-0.587l-1.368-0.498
					c-0.482-0.175-0.992-0.265-1.505-0.265h-3.38l-3.07,0.096c-0.556,0.017-1.103,0.14-1.613,0.361l-2.448,1.061
					c-0.296,0.128-0.578,0.289-0.839,0.479l-3.246,2.361C126.974,31.215,126.734,31.434,126.52,31.677L126.52,31.677z"/>
				<path class="st7" d="M192.418,45.576l-0.371,0.011c-0.647,0.019-1.272,0.224-1.79,0.588l-0.586,0.412
					c-0.236,0.166-0.446,0.362-0.624,0.582l-3.944,4.895c-0.088,0.109-0.184,0.212-0.287,0.309l-2.928,2.742
					c-0.533,0.5-0.857,1.162-0.913,1.867l-0.335,4.243c-0.008,0.105-0.011,0.211-0.007,0.316l0.087,2.433
					c0.011,0.305,0.072,0.606,0.182,0.893l1.464,3.839l0.933,2.098c0.431,0.968,1.379,1.649,2.489,1.788l0.744,0.093
					c0.474,0.059,0.957,0.016,1.411-0.125l4.984-1.556c0.94-0.293,1.677-0.984,1.99-1.864l1.164-3.272
					c0.05-0.141,0.112-0.279,0.185-0.412l2.882-5.271c0.227-0.416,0.346-0.877,0.346-1.344l0,0c0-0.234-0.03-0.467-0.088-0.694
					l-0.751-2.903c-0.021-0.08-0.045-0.16-0.073-0.238l-1.346-3.783c-0.033-0.092-0.07-0.183-0.113-0.271l-1.734-3.632
					C194.868,46.227,193.694,45.539,192.418,45.576L192.418,45.576z"/>
				<path class="st7" d="M191.305,88.732L191.305,88.732c1.791,1.009,4.098,0.577,5.347-1.002l4.378-5.537
					c0.128-0.162,0.213-0.35,0.249-0.55l0.539-3.007c0.05-0.28,0-0.568-0.143-0.817l-1.448-2.537
					c-0.093-0.163-0.223-0.306-0.381-0.417l-2.065-1.453c-0.203-0.143-0.444-0.228-0.695-0.247l-2.706-0.205
					c-0.172-0.013-0.344,0.005-0.508,0.054l-3.929,1.162c-0.075,0.022-0.147,0.05-0.217,0.084l-3.261,1.596
					c-0.333,0.163-0.579,0.45-0.678,0.791l-1.178,4.033c-0.048,0.165-0.061,0.338-0.037,0.508l0.481,3.39
					c0.054,0.381,0.287,0.718,0.634,0.918l2.554,1.471C188.241,86.967,191.305,88.732,191.305,88.732z"/>
				<path class="st7" d="M173.465,93.437c1.583-1.014,4.9-3.233,6.213-4.113c0.366-0.246,0.669-0.567,0.893-0.947l1.951-3.295
					c0.296-0.501,0.439-1.078,0.409-1.659l-0.191-3.698c-0.044-0.847-0.448-1.634-1.112-2.162l-1.245-0.991
					c-0.458-0.364-1.013-0.585-1.596-0.633l-4.233-0.353l-3.081-0.22c-0.764-0.055-1.52,0.189-2.107,0.681l-3.173,2.652
					l-5.363,4.202c-0.366,0.287-0.659,0.656-0.856,1.077l-0.56,1.2c-0.274,0.587-0.348,1.248-0.209,1.881l0.286,1.31
					c0.151,0.691,0.544,1.305,1.108,1.731l2.175,1.641c0.284,0.214,0.603,0.375,0.944,0.476l3.042,0.898
					c0.11,0.033,0.223,0.059,0.336,0.078l3.588,0.617c0.098,0.017,0.198,0.029,0.297,0.036l0.691,0.048
					C172.304,93.937,172.93,93.779,173.465,93.437L173.465,93.437z"/>
				<path class="st7" d="M175.897,93.458l6.417-4.004c0.463-0.289,0.983-0.474,1.524-0.543l1.449-0.184
					c0.71-0.09,1.431,0.023,2.079,0.325l4.102,1.917c0.345,0.161,0.664,0.374,0.946,0.631l1.325,1.207
					c0.644,0.587,1.066,1.379,1.194,2.241l0.461,3.115c0.049,0.329,0.054,0.662,0.015,0.992l-0.209,1.788
					c-0.104,0.889-0.519,1.712-1.173,2.323l0,0c-0.572,0.535-1.297,0.88-2.074,0.986l-6.435,0.875l-3.343,0.592
					c-0.949,0.168-1.927-0.033-2.734-0.561l-1.706-1.119c-0.501-0.328-0.916-0.771-1.212-1.291l-1.743-3.061
					c-0.204-0.359-0.349-0.749-0.427-1.155l-0.212-1.099c-0.216-1.118,0.084-2.274,0.816-3.147l0.044-0.053
					C175.257,93.931,175.559,93.669,175.897,93.458L175.897,93.458z"/>
				<path class="st7" d="M149.918,103.889l4.665-7.233c0.144-0.224,0.321-0.425,0.524-0.597l3.234-2.736
					c0.752-0.637,1.792-0.812,2.712-0.457l5.368,2.072c0.066,0.025,0.13,0.053,0.194,0.084l3.483,1.668
					c0.492,0.235,0.9,0.614,1.172,1.087l3.266,5.676c0.026,0.046,0.051,0.092,0.075,0.139l1.201,2.401
					c0.375,0.75,0.38,1.632,0.012,2.386l-1.28,2.625c-0.33,0.676-0.927,1.184-1.648,1.401l-3.263,0.979
					c-0.323,0.097-0.661,0.132-0.996,0.105l-6.046-0.499c-0.065-0.005-0.131-0.008-0.197-0.009l-5.736-0.054
					c-0.456-0.004-0.904-0.124-1.301-0.349l-1.683-0.952c-0.342-0.193-0.637-0.458-0.865-0.777l-2.814-3.93
					c-0.249-0.348-0.412-0.751-0.475-1.174l0,0C149.421,105.098,149.564,104.439,149.918,103.889z"/>
				<path class="st7" d="M135.824,111.305l1.549-2.719c0.399-0.701,1.065-1.212,1.846-1.415l3.475-0.907
					c0.598-0.156,1.229-0.123,1.807,0.094l3.077,1.154c0.597,0.224,1.106,0.631,1.455,1.165c0.465,0.711,1.084,1.666,1.232,1.925
					c0.172,0.302,1.653,2.307,2.509,3.46c0.392,0.529,0.599,1.17,0.589,1.828l-0.039,2.593c-0.005,0.318-0.06,0.634-0.164,0.935
					l-1.228,3.548c-0.172,0.497-0.471,0.939-0.868,1.283l-2.074,1.797c-0.626,0.543-1.45,0.802-2.274,0.715l0,0
					c-0.665-0.07-1.288-0.361-1.769-0.826l-4.802-4.647c-0.088-0.085-0.17-0.175-0.247-0.27l-3.29-4.073
					c-0.289-0.358-0.492-0.778-0.593-1.227l-0.51-2.276C135.341,112.714,135.455,111.952,135.824,111.305L135.824,111.305z"/>
				<path class="st8" d="M174.376,127.659L174.376,127.659c-0.137-0.041-0.28-0.061-0.423-0.061h-2.616
					c-0.206,0-0.409,0.043-0.597,0.125l-2.889,1.263c-0.14,0.061-0.269,0.143-0.384,0.244l-1.363,1.193
					c-0.257,0.225-0.429,0.532-0.487,0.869l-0.495,2.873c-0.013,0.075-0.031,0.148-0.056,0.22l-0.711,2.124l0.506,0.67l4.715-3.143
					l5.243-3.732C175.83,129.582,175.568,128.012,174.376,127.659L174.376,127.659z"/>
				<path class="st8" d="M103.019,140.233l1.071-3.347c0.016-0.05,0.034-0.1,0.053-0.149l1.883-4.857
					c0.049-0.126,0.107-0.247,0.174-0.364l2.575-4.463c0.297-0.515,0.759-0.914,1.312-1.133l3.538-1.4
					c0.41-0.162,0.853-0.219,1.29-0.165l3.899,0.479c0.869,0.107,1.628,0.638,2.026,1.418l1.007,1.976
					c0.089,0.174,0.158,0.357,0.206,0.546l1.884,7.403c0.019,0.074,0.034,0.149,0.047,0.224l0.815,4.979
					c0.07,0.43,0.033,0.87-0.108,1.282l-0.736,2.141c-0.13,0.379-0.345,0.723-0.628,1.006l-0.339,0.339
					c-0.628,0.628-1.53,0.897-2.4,0.716l-15.597-3.249c-0.371-0.077-0.72-0.233-1.025-0.458l0,0
					C103.055,142.485,102.675,141.309,103.019,140.233L103.019,140.233z"/>
				<path class="st8" d="M130.01,94.546l7.075-6.349c0.042-0.038,0.08-0.079,0.114-0.125l0.693-0.932
					c0.994-1.337,2.601-2.076,4.263-1.961l2.202,0.153c0.015,0.001,0.03,0.002,0.044,0.002l7.536,0.126
					c0.699,0.012,1.386,0.179,2.012,0.489l1.105,0.547c0.147,0.073,0.269,0.186,0.352,0.327l0.795,1.345
					c0.585,0.99,0.73,2.179,0.399,3.281l-0.278,0.928c-0.035,0.116-0.094,0.223-0.173,0.313l-5.791,6.618
					c-0.023,0.026-0.044,0.053-0.063,0.081l-2.342,2.445c-0.041,0.043-0.086,0.082-0.134,0.117l-3.12,1.809l-4.728,1.562l-1,0.28
					c-1.862,0.521-3.859-0.045-5.17-1.465l-1.717-1.86c-0.013-0.014-0.025-0.027-0.039-0.039L129,99.345
					c-0.106-0.1-0.184-0.227-0.226-0.366l0,0C128.289,97.387,128.771,95.657,130.01,94.546z"/>
				<path class="st8" d="M149.952,55.1l-0.37,1.155c-0.072,0.226-0.126,0.458-0.162,0.693l-0.323,2.152
					c-0.033,0.217-0.049,0.437-0.049,0.657v0.034c0,0.958,0.311,1.891,0.886,2.657l0.097,0.129c0.194,0.259,0.415,0.495,0.661,0.705
					l0.426,0.365c0.768,0.658,1.737,1.034,2.748,1.064l2.767,0.084c0.228,0.007,0.457-0.004,0.683-0.032l3.437-0.43
					c0.498-0.062,0.982-0.209,1.431-0.433l1.046-0.523c0.9-0.45,1.619-1.192,2.041-2.105l0.809-1.753
					c0.158-0.343,0.272-0.705,0.339-1.077l0.269-1.508c0.216-1.209-0.08-2.453-0.817-3.436l-0.355-0.473
					c-0.126-0.168-0.263-0.326-0.411-0.474l-0.175-0.175c-0.662-0.662-1.516-1.097-2.441-1.243l-0.729-0.115
					c-0.357-0.056-0.72-0.069-1.08-0.037l-3.945,0.348c-0.217,0.019-0.432,0.054-0.644,0.105l-2.955,0.709
					c-0.177,0.042-0.351,0.096-0.521,0.16l0,0C151.347,52.779,150.365,53.81,149.952,55.1L149.952,55.1z"/>
				<path class="st8" d="M96.495,34.426l-0.989,3.463c-0.111,0.39-0.168,0.794-0.168,1.2v3.526c0,0.167,0.01,0.334,0.029,0.5
					l0.214,1.854c0.118,1.019,0.59,1.964,1.335,2.669l0.788,0.746c0.493,0.467,1.087,0.812,1.737,1.009l3.684,1.116l2.557,0.793
					c0.999,0.31,2.076,0.251,3.035-0.166l0.968-0.421c0.529-0.23,1.007-0.562,1.406-0.978l2.498-2.598
					c0.289-0.3,0.619-0.558,0.981-0.765l4.409-2.519l1.302-0.736c1.226-0.693,2.043-1.935,2.193-3.336l0.068-0.638
					c0.077-0.718-0.025-1.444-0.298-2.113l-0.431-1.059c-0.454-1.113-1.346-1.991-2.467-2.425l-2.189-0.847
					c-0.294-0.114-0.6-0.196-0.912-0.244l-6.731-1.036c-0.107-0.016-0.215-0.029-0.323-0.037l-6.406-0.502
					c-0.432-0.034-0.866-0.003-1.289,0.091l-1.749,0.389c-0.932,0.207-1.77,0.714-2.386,1.442l0,0
					C96.96,33.278,96.665,33.83,96.495,34.426z"/>
				<path class="st4" d="M164.85,65.986l0.262,0.405c0.12,0.186,0.209,0.391,0.262,0.605l1.057,4.286
					c0.011,0.045,0.024,0.089,0.038,0.133l0.614,1.909c0.114,0.354,0.126,0.732,0.037,1.092l-0.02,0.082
					c-0.11,0.442-0.369,0.834-0.733,1.109l-4.736,3.577l-2.762,2.311l-1.899,1.489c-0.124,0.097-0.258,0.179-0.401,0.244
					l-1.291,0.59c-0.306,0.14-0.642,0.2-0.978,0.175l-1.743-0.131l-0.62-0.676l0.169-3.044l0.056-4.904l-0.109-3.418
					c-0.003-0.089-0.012-0.177-0.026-0.264l-0.408-2.448c-0.014-0.084-0.023-0.168-0.026-0.253l-0.006-0.152
					c-0.028-0.75,0.367-1.452,1.023-1.817l0.963-0.536c0.222-0.124,0.465-0.203,0.717-0.236l2.647-0.337
					c0.048-0.006,0.095-0.01,0.143-0.013l2.903-0.158c0.083-0.005,0.166-0.014,0.248-0.029l2.589-0.471
					c0.256-0.047,0.519-0.043,0.774,0.012l0,0C164.111,65.23,164.563,65.542,164.85,65.986L164.85,65.986z"/>
				<path class="st3" d="M96.593,26.814c0.383,1.005,1.311,1.699,2.384,1.781l3.336,0.257l8.356,0.914l6.528,1.045l4.789,0.599
					c0.28,0.035,0.562-0.033,0.795-0.192l5.158-3.514c0.026-0.018,0.053-0.034,0.08-0.05l3.184-1.807
					c0.148-0.084,0.276-0.2,0.374-0.339l1.096-1.553c0.203-0.287,0.264-0.652,0.166-0.99l-1.227-4.239
					c-0.036-0.125-0.093-0.242-0.168-0.348l-1.521-2.144c-0.083-0.117-0.144-0.249-0.179-0.388v0
					c-0.31-1.235-1.467-2.065-2.736-1.964l-1.031,0.082c-0.023,0.002-0.046,0.004-0.068,0.007l-6.371,0.892
					c-0.082,0.011-0.163,0.032-0.24,0.06l-5.959,2.2c-0.04,0.015-0.081,0.027-0.122,0.038l-5.991,1.485
					c-0.055,0.014-0.11,0.031-0.162,0.053l-4.282,1.763c-0.052,0.021-0.105,0.039-0.16,0.053l-1.97,0.492
					c-0.712,0.178-1.376,0.513-1.943,0.979l-1.15,0.947c-0.137,0.113-0.247,0.256-0.32,0.419l-0.608,1.352
					c-0.292,0.648-0.313,1.386-0.06,2.05C96.571,26.756,96.593,26.814,96.593,26.814z"/>
				<path class="st3" d="M92.002,14.335l1.243,2.687c0.038,0.083,0.087,0.16,0.145,0.231l1.43,1.746
					c0.033,0.041,0.064,0.084,0.091,0.129l0.62,1.034c0.29,0.484,0.904,0.662,1.408,0.41l2.501-1.25l4.116-2.142
					c0.041-0.021,0.084-0.04,0.127-0.056l3.925-1.437c0.038-0.014,0.075-0.03,0.112-0.048l2.322-1.161
					c0.311-0.156,0.528-0.451,0.583-0.795l0.406-2.535c0.019-0.121,0.018-0.243-0.004-0.364l-0.445-2.445
					c-0.029-0.162-0.095-0.314-0.192-0.446l-1.241-1.687c-0.256-0.348-0.695-0.51-1.115-0.411l-5.785,1.354
					c-0.108,0.025-0.212,0.067-0.308,0.124l-9.513,5.684C91.955,13.239,91.771,13.834,92.002,14.335z"/>
				<path class="st6" d="M113.694,4.248c-0.712,0.203-1.154,0.912-1.023,1.641l0.348,1.942l0.522,3.656l0.191,1.145
					c0.116,0.696,0.718,1.205,1.423,1.205h2.053c0.079,0,0.159-0.007,0.237-0.02l4.532-0.755c0.034-0.006,0.068-0.013,0.101-0.021
					l5.483-1.323c0.272-0.066,0.519-0.209,0.711-0.413l0.63-0.668c0.2-0.212,0.331-0.479,0.375-0.767l0.481-3.087
					c0.027-0.17,0.022-0.344-0.012-0.513l-0.503-2.446c-0.023-0.114-0.06-0.224-0.11-0.329l-0.049-0.103
					c-0.254-0.533-0.807-0.858-1.396-0.82l-10.359,0.67c-0.103,0.007-0.205,0.024-0.304,0.053L113.694,4.248L113.694,4.248z"/>
			</g>
		</g>
	</g>
	<g id="e">
		<g>
			<line class="st9" x1="175.818" y1="70.718" x2="66.689" y2="70.718"/>
			<path class="st9" d="M93.182,68.166c0.98-24.464,15.612-43.607,33.332-43.607"/>
			<path class="st9" d="M130.107,116.876c-19.568,0.199-35.815-18.968-36.918-43.555"/>
		</g>
		<line class="st9" x1="158.799" y1="116.878" x2="128.575" y2="116.878"/>
		<line class="st9" x1="144.039" y1="24.559" x2="126.102" y2="24.559"/>
	</g>
	<g id="f">
		<line class="st10" x1="175.926" y1="70.425" x2="66.798" y2="70.425"/>
		<path class="st11" d="M93.29,67.873c0.98-24.464,15.612-43.607,33.332-43.607"/>
		<path class="st11" d="M130.215,116.583c-19.568,0.199-35.815-18.968-36.918-43.555"/>
		<line class="st11" x1="158.907" y1="116.585" x2="128.683" y2="116.585"/>
		<line class="st11" x1="144.148" y1="24.266" x2="126.21" y2="24.266"/>
		<ellipse class="st12" cx="94.476" cy="70.425" rx="15.661" ry="16.073"/>
		<circle class="st12" cx="175.926" cy="70.425" r="9.479"/>
		<ellipse class="st12" cx="145.581" cy="25.915" rx="9.067" ry="9.479"/>
		<circle class="st12" cx="162.478" cy="116.585" r="9.479"/>
	</g>
</g>
<g id="g">
	<path class="st13" d="M169.884,133.289c-32.271,23.019-77.193,15.372-100.335-17.072c-5.496-7.705-9.263-16.11-11.395-24.762
		C51.32,63.663,61.46,33.344,86.07,15.789C118.341-7.23,163.259,0.411,186.406,32.861
		C209.548,65.305,202.154,110.27,169.884,133.289L169.884,133.289z"/>
</g>
</svg>
